<?xml version="1.0" standalone="no"?>
<!DOCTYPE svg PUBLIC "-//W3C//DTD SVG 20010904//EN"
 "http://www.w3.org/TR/2001/REC-SVG-20010904/DTD/svg10.dtd">
<svg version="1.0" xmlns="http://www.w3.org/2000/svg"
 width="50.000000pt" height="50.000000pt" viewBox="0 0 50.000000 50.000000"
 preserveAspectRatio="xMidYMid meet">

<g transform="translate(0.000000,50.000000) scale(0.100000,-0.100000)"
fill="#000000" stroke="none">
<path d="M170 477 c-49 -16 -133 -102 -148 -153 -47 -161 65 -314 230 -314 99
0 176 50 217 140 87 191 -96 391 -299 327z m23 -104 c10 -9 108 -10 114 -1 9
16 51 7 97 -22 45 -29 47 -32 40 -63 -5 -17 -9 -47 -9 -64 0 -26 -4 -33 -20
-33 -11 0 -31 7 -43 16 -21 15 -22 14 -22 -19 0 -40 -30 -84 -49 -72 -7 4 -21
21 -31 37 -10 18 -20 25 -24 19 -4 -6 -3 -11 2 -11 6 0 12 -7 16 -15 4 -10 -1
-15 -15 -15 -13 0 -18 5 -14 13 4 6 0 4 -8 -5 -8 -10 -24 -18 -35 -18 -21 0
-25 8 -37 68 -6 30 -8 31 -28 17 -29 -20 -57 -19 -57 3 0 9 -3 40 -6 69 l-7
51 49 26 c50 26 75 31 87 19z"/>
<path d="M191 254 c0 -11 3 -14 6 -6 3 7 2 16 -1 19 -3 4 -6 -2 -5 -13z"/>
<path d="M300 254 c0 -8 5 -12 10 -9 6 3 10 10 10 16 0 5 -4 9 -10 9 -5 0 -10
-7 -10 -16z"/>
<path d="M215 220 c-11 -18 10 -32 41 -28 40 4 38 32 -3 36 -17 2 -34 -2 -38
-8z"/>
</g>
</svg>
